<?xml version="1.0" encoding="utf-8"?>
<!-- Generator: Adobe Illustrator 21.1.0, SVG Export Plug-In . SVG Version: 6.00 Build 0)  -->
<svg version="1.1" id="Layer_1" xmlns="http://www.w3.org/2000/svg" xmlns:xlink="http://www.w3.org/1999/xlink" x="0px" y="0px"
	 viewBox="0 0 286.4 196" style="enable-background:new 0 0 286.4 196;" xml:space="preserve">
<style type="text/css">
	.st0{fill:none;stroke:#FFC60B;stroke-width:10;}
	.st1{fill:#009542;}
	.st2{fill:#B2D235;}
	.st3{fill:#00AEEF;}
	.st4{fill:#ED1164;}
	.st5{fill:#AB4A9C;}
	.st6{fill:#F4783B;}
</style>
<g>
	<g>
		<path class="st0" d="M107.3,70.9l23.7-3.3l5.2,11.8l-28.4,4.3l0.1,1.5l29-3.7l6.2,15.6l-82.3,5.1l-7.4-12.3
			c14.8-1.5,17-1.8,36.5-4.4l-0.1-2.3l-24.7,2.7l-5-9.1l29.5-4.2l-0.1-1.5l-25.9,3.2l-5.7-11L79,59.7l-0.2-3.2l-23.5,6.7L49,50.4
			l7.4-1.6l-0.7-21.4l-3.5,0.7L45.9,16l45.8-9.1l6.3,8.2l27.2-6.2l13.1,8.6l-0.5,30l-38,4.8L96.4,20l-2.3,0.4l2.4,36.1l32-5.5
			l6.7,13.4l-27.8,3.8L107.3,70.9z M77.1,26.8l-0.2-3.1L72,24.6l0.1,3.2L77.1,26.8z M72.5,34.2l0.2,2.9l5-1l-0.2-2.9L72.5,34.2z
			 M78,42.4l-5,1l0.2,2.9l5-1L78,42.4z M120.3,26l-6,1.3l0.4,8l5.5-0.9L120.3,26z"/>
		<path class="st0" d="M205.6,49.5l26.3,0.6l3.7,8.9l-30.5-0.6v1.8l32.3,0.5l4.1,11.4l-86.9-2l-5-10.7l37.7,0.5l0.1-1.9l-27.2-0.5
			l-3.9-9.2l31.5,0.7l0.1-2.1l-21.3-0.6l-3.6-8.6l25.4,0.4l0.2-2.3L156,35l-4.4-11.3l37.7,0.8l0.1-2.4l-22.8-0.6l-4.4-9.9l27.8,0.8
			l0.3-5.6l17.4,1.9l-0.2,4.1l15.7,0.5l13.9,6.4l-1.1,5.9l5.3,0.2l3.1,11.4L233.9,37l-2,11.2l-26.3-0.8L205.6,49.5z M219.9,73.2
			l13.5,6.5l-5.6,22.7l-66.5-2.9L160,72.2L219.9,73.2z M212.7,83.9l0.5-2.5l-34-0.7v2.2L212.7,83.9z M179.3,89.3v2.6l31.4,0.7
			l0.5-2.4L179.3,89.3z M206.2,38.6l9.1,0.2l0.4-2.3l-9.4-0.2L206.2,38.6z M206.8,25l11.2,0.3l0.4-2.5l-11.5-0.2L206.8,25z"/>
	</g>
	<g>
		<path class="st1" d="M107.3,70.9l23.7-3.3l5.2,11.8l-28.4,4.3l0.1,1.5l29-3.7l6.2,15.6l-82.3,5.1l-7.4-12.3
			c14.8-1.5,17-1.8,36.5-4.4l-0.1-2.3l-24.7,2.7l-5-9.1l29.5-4.2l-0.1-1.5l-25.9,3.2l-5.7-11L79,59.7l-0.2-3.2l-23.5,6.7L49,50.4
			l7.4-1.6l-0.7-21.4l-3.5,0.7L45.9,16l45.8-9.1l6.3,8.2l27.2-6.2l13.1,8.6l-0.5,30l-38,4.8L96.4,20l-2.3,0.4l2.4,36.1l32-5.5
			l6.7,13.4l-27.8,3.8L107.3,70.9z M77.1,26.8l-0.2-3.1L72,24.6l0.1,3.2L77.1,26.8z M72.5,34.2l0.2,2.9l5-1l-0.2-2.9L72.5,34.2z
			 M78,42.4l-5,1l0.2,2.9l5-1L78,42.4z M120.3,26l-6,1.3l0.4,8l5.5-0.9L120.3,26z"/>
		<path class="st1" d="M205.6,49.5l26.3,0.6l3.7,8.9l-30.5-0.6v1.8l32.3,0.5l4.1,11.4l-86.9-2l-5-10.7l37.7,0.5l0.1-1.9l-27.2-0.5
			l-3.9-9.2l31.5,0.7l0.1-2.1l-21.3-0.6l-3.6-8.6l25.4,0.4l0.2-2.3L156,35l-4.4-11.3l37.7,0.8l0.1-2.4l-22.8-0.6l-4.4-9.9l27.8,0.8
			l0.3-5.6l17.4,1.9l-0.2,4.1l15.7,0.5l13.9,6.4l-1.1,5.9l5.3,0.2l3.1,11.4L233.9,37l-2,11.2l-26.3-0.8L205.6,49.5z M219.9,73.2
			l13.5,6.5l-5.6,22.7l-66.5-2.9L160,72.2L219.9,73.2z M212.7,83.9l0.5-2.5l-34-0.7v2.2L212.7,83.9z M179.3,89.3v2.6l31.4,0.7
			l0.5-2.4L179.3,89.3z M206.2,38.6l9.1,0.2l0.4-2.3l-9.4-0.2L206.2,38.6z M206.8,25l11.2,0.3l0.4-2.5l-11.5-0.2L206.8,25z"/>
	</g>
</g>
<g>
	<path class="st2" d="M59,174.9c-5.5-2.4-6.1-2.7-9.6-4.2c-3.6,4-10.1,11.3-23.7,21.5l-19.3-9.8c4.2-2.1,15.7-7.6,27.1-18.4
		c-6.4-2.2-7.1-2.5-12.7-4.3l9.6-10.3c3.8,0.9,4.7,1.1,12.5,3.2c4-5.5,5.3-8.5,6.3-10.7l-18.3,4.2l-2.5-3.4
		c-5.9,8.2-6.4,8.8-10.3,13.6L0,152.9c10.3-10.6,18.1-20.4,26.9-35.4l14,5.9c-1.4,2.3-3.3,5.4-4.9,8l19.8-5.1l13.2,9.8
		c-1.5,3.9-4.4,11.2-11,21.5c3,0.9,7.2,2.3,11.7,3.8L59,174.9z"/>
	<path class="st3" d="M101.3,151.1l0.1,33.8l-15.2,1l1.1-30.8c-5.1,3.4-11.4,7.3-13.3,8.4l-13.4-9.3c19.2-8.7,35.5-21.3,44.7-28.4
		l10.6,8.5c-11.1,8.7-15.2,11.7-20,15L101.3,151.1z"/>
	<path class="st4" d="M129.1,176.4c0,1-0.1,3.7,0.1,5.1c0.2,1.2,1.4,1.8,4.5,1.8c10.5,0,20.9-1.4,31.3-3l2.3,14.2
		c-5.9,0.6-14.6,1.5-25.4,1.5c-24.9,0-27-3.6-27-18.3l-0.1-37.8l14.4,1.6l-0.1,17c11.4-3.8,12.7-4.2,21.9-7.4
		c-0.4-1-0.7-2.1-0.7-3.5c0-5.2,4.2-9.4,9.4-9.4c5.2,0,9.4,4.2,9.4,9.4c0,4.5-3.2,8.5-8,9.3l2.8,5c-12.1,3.6-20.4,5.9-32.6,9.1
		l-2.3-3.1L129.1,176.4z M156.7,147.6c0,1.7,1.4,3.1,3.1,3.1c1.8,0,3.1-1.4,3.1-3.1c0-1.8-1.4-3.1-3.1-3.1S156.7,145.8,156.7,147.6z
		"/>
	<path class="st5" d="M187.4,159.4c-5.6-7.3-11.1-12.4-16-16.3l11.9-3.8c4.3,3.2,8.9,6.9,13.7,11.1L187.4,159.4z M221.8,168.7
		c-15.8,11-29.5,18.5-39.1,22.8l-10.9-10.7c18-6.2,34.9-15.3,50.5-26.1L221.8,168.7z"/>
	<path class="st6" d="M279.6,151.1c-7.8,18.4-17.8,33.6-28.2,42.7l-17.9-6.8c17.8-10.2,28.1-29,31.6-35.8l-16.9,4.5l-3-3.4
		c-5.3,8.2-5.8,9.1-8.5,12.9l-14.2-2.5c8.5-12.1,14-21.3,20.2-33.2l12.8,5.5c-1.4,2.5-1.6,2.9-3.9,6.9l12.2-2.8l-1.2-7.5l11.1,3.3
		l-1.7-5.6l10.4,0.6l4,13.1l-9.3,2.9l-1.9-5.9l-2.5,2.8L279.6,151.1z"/>
</g>
</svg>
